<?xml version="1.0" standalone="no"?>
<!DOCTYPE svg PUBLIC "-//W3C//DTD SVG 20010904//EN"
 "http://www.w3.org/TR/2001/REC-SVG-20010904/DTD/svg10.dtd">
<svg version="1.0" xmlns="http://www.w3.org/2000/svg"
 width="700.000000pt" height="700.000000pt" viewBox="0 0 700.000000 700.000000"
 preserveAspectRatio="xMidYMid meet">
<metadata>
Created by potrace 1.11, written by Peter Selinger 2001-2013
</metadata>
<g transform="translate(0.000000,700.000000) scale(0.100000,-0.100000)"
fill="#000000" stroke="none">
<path d="M3215 6989 c-1076 -92 -2038 -660 -2629 -1554 -319 -481 -504 -994
-568 -1570 -17 -155 -17 -575 0 -730 126 -1136 770 -2116 1766 -2685 397 -227
850 -372 1351 -432 182 -22 606 -16 802 10 575 78 1058 262 1533 583 727 492
1252 1264 1444 2126 61 273 80 449 80 758 0 273 -6 363 -45 593 -158 947 -708
1792 -1514 2326 -237 157 -418 251 -680 354 -466 182 -1036 264 -1540 221z
m165 -753 l0 -523 -83 -6 c-165 -13 -370 -57 -543 -118 -208 -71 -484 -229
-658 -374 l-80 -66 -203 203 c-112 112 -203 205 -203 208 0 10 180 157 271
222 46 33 137 91 201 130 65 38 125 79 133 91 8 12 15 41 15 65 0 37 -6 50
-34 78 -54 54 -94 49 -234 -32 -131 -77 -308 -203 -435 -312 l-89 -75 -79 79
c-43 43 -79 82 -79 86 0 11 188 168 300 249 407 296 882 496 1375 579 141 23
264 37 358 39 l67 1 0 -524z m437 389 c645 -85 1273 -360 1744 -765 l67 -57
-323 -323 -324 -323 -68 55 c-263 212 -544 356 -854 437 -118 30 -298 61 -360
61 -19 0 -44 3 -56 6 l-23 6 0 459 0 459 39 0 c22 0 93 -7 158 -15z m-2335
-1272 l367 -368 -66 -80 c-261 -316 -457 -783 -488 -1165 -3 -41 -8 -85 -11
-97 l-4 -23 -287 0 -286 0 7 110 c15 250 87 554 195 823 37 92 39 134 9 172
-46 59 -125 66 -176 15 -53 -53 -167 -387 -217 -635 -28 -135 -55 -352 -55
-432 l0 -53 -115 0 -115 0 0 40 c0 22 7 107 15 188 60 573 281 1138 625 1597
89 119 219 275 229 275 3 0 171 -165 373 -367z m4375 174 c393 -525 621 -1144
669 -1814 l6 -93 -405 0 -406 0 -5 33 c-3 17 -8 64 -11 102 -10 109 -53 308
-95 435 -80 244 -207 481 -366 684 l-86 109 314 314 c172 172 315 313 318 313
3 0 33 -37 67 -83z m-2477 -632 l0 -585 -27 -6 c-116 -25 -215 -64 -296 -116
l-49 -31 -411 412 -412 412 48 42 c153 132 439 293 632 356 149 48 351 89 498
100 16 1 17 -33 17 -584z m510 544 c294 -57 603 -202 853 -400 l67 -54 -411
-411 -412 -412 -51 32 c-72 46 -160 83 -244 103 l-72 17 0 581 0 581 83 -8
c45 -4 129 -17 187 -29z m-1456 -1038 l409 -409 -31 -49 c-47 -73 -91 -176
-109 -254 l-15 -69 -584 0 -584 0 4 23 c3 12 8 53 11 92 23 262 146 603 305
844 64 97 167 231 179 231 3 0 190 -184 415 -409z m2618 324 c130 -164 251
-387 322 -592 43 -125 84 -313 92 -428 l7 -85 -580 0 -580 0 -12 58 c-18 79
-64 192 -105 254 l-34 53 411 412 c226 227 414 409 418 405 3 -4 31 -38 61
-77z"/>
<path d="M2780 6449 c-289 -74 -340 -103 -340 -191 0 -41 5 -54 29 -78 44 -45
70 -46 184 -12 56 17 147 42 203 56 117 28 138 39 159 82 19 40 19 67 0 104
-33 64 -96 75 -235 39z"/>
</g>
</svg>
